<?xml version="1.0" encoding="UTF-8" standalone="no" ?>
<!DOCTYPE svg PUBLIC "-//W3C//DTD SVG 1.1//EN" "http://www.w3.org/Graphics/SVG/1.1/DTD/svg11.dtd">
<svg xmlns="http://www.w3.org/2000/svg" xmlns:xlink="http://www.w3.org/1999/xlink" version="1.1" width="1080" height="1080" viewBox="0 0 1080 1080" xml:space="preserve">
<desc>Created with Fabric.js 5.2.4</desc>
<defs>
</defs>
<g transform="matrix(1 0 0 1 540 540)" id="979a710f-33e5-4f9a-af3f-351a059bf6f1"  >
<rect style="stroke: none; stroke-width: 1; stroke-dasharray: none; stroke-linecap: butt; stroke-dashoffset: 0; stroke-linejoin: miter; stroke-miterlimit: 4; fill: rgb(255,255,255); fill-rule: nonzero; opacity: 1; visibility: hidden;" vector-effect="non-scaling-stroke"  x="-540" y="-540" rx="0" ry="0" width="1080" height="1080" />
</g>
<g transform="matrix(1 0 0 1 540 540)" id="f9f90383-03b7-4b03-a510-d6dc360a8a1b"  >
</g>
<g transform="matrix(1 0 0 1 540 540)" id="edea7153-281a-49a7-b781-545d171cc7c0"  >
<path style="stroke: rgb(0,0,0); stroke-width: 0; stroke-dasharray: none; stroke-linecap: butt; stroke-dashoffset: 0; stroke-linejoin: miter; stroke-miterlimit: 4; fill: rgb(117,172,157); fill-rule: nonzero; opacity: 1;" vector-effect="non-scaling-stroke"  transform=" translate(-446.83, -84.53)" d="M 625.55 35.22 C 611.8 35.22 601.9799999999999 39.92 597.16 48.81 L 594.5699999999999 53.6 L 594.5699999999999 37.54 L 572.17 37.54 L 572.17 135.39 L 595.7299999999999 135.39 L 595.7299999999999 77.18 C 595.7299999999999 63.27000000000001 603.2799999999999 55.290000000000006 616.4599999999999 55.290000000000006 C 629.0199999999999 55.290000000000006 636.2199999999999 63.050000000000004 636.2199999999999 76.60000000000001 L 636.2199999999999 135.39000000000001 L 659.7799999999999 135.39000000000001 L 659.7799999999999 72.39000000000001 C 659.7799999999999 49.13000000000001 646.9799999999999 35.22000000000001 625.5499999999998 35.22000000000001 z M 511.3299999999999 35.22 C 483.5399999999999 35.22 466.2699999999999 52.55 466.2699999999999 80.47 L 466.2699999999999 94.21 C 466.2699999999999 121.03999999999999 483.68999999999994 137.72 511.7199999999999 137.72 C 530.4599999999999 137.72 543.5999999999999 130.84 551.8699999999999 116.72 L 537.2599999999999 108.33 C 531.1499999999999 116.48 521.3999999999999 121.52 511.71999999999986 121.52 C 497.52999999999986 121.52 489.04999999999984 112.75999999999999 489.04999999999984 98.08 L 489.04999999999984 94.19 L 554.8399999999998 94.19 L 554.8399999999998 77.95 C 554.8399999999998 51.95 537.7599999999998 35.220000000000006 511.3299999999998 35.220000000000006 z M 533.41 78.36 L 489.04999999999995 78.36 L 489.04999999999995 76.02 C 489.04999999999995 59.89999999999999 496.96 51.019999999999996 511.3299999999999 51.019999999999996 C 525.16 51.019999999999996 533.41 59.779999999999994 533.41 74.46 L 533.41 78.36 z M 893.65 21.43 L 893.65 2.71 L 812.2 2.71 L 812.2 21.43 L 840.76 21.43 L 840.76 116.68 L 812.2 116.68 L 812.2 135.39000000000001 L 893.6500000000001 135.39000000000001 L 893.6500000000001 116.68 L 865.0900000000001 116.68 L 865.0900000000001 21.43 L 893.6500000000001 21.43 z M 276 0 C 239.61 0 217 22.68 217 59.18 L 217 78.92 C 217 115.43 239.6 138.1 276 138.1 C 312.4 138.1 335 115.42999999999999 335 78.91999999999999 L 335 59.18 C 334.99 22.68 312.38 0 276 0 z M 310.65999999999997 80.27 C 310.65999999999997 104.50999999999999 298.03 118.41999999999999 276 118.41999999999999 C 253.97 118.41999999999999 241.32999999999998 104.50999999999999 241.32999999999998 80.26999999999998 L 241.32999999999998 57.83 C 241.32999999999998 33.59 253.95999999999998 19.68 275.99 19.68 C 298.02 19.68 310.65 33.59 310.65 57.83 L 310.65999999999997 80.27 z M 408.96999999999997 35.269999999999996 C 396.60999999999996 35.269999999999996 385.9 40.379999999999995 380.33 48.959999999999994 L 377.78999999999996 52.85999999999999 L 377.78999999999996 37.54 L 355.4 37.54 L 355.4 169.06 L 378.95 169.06 L 378.95 121.43 L 381.47999999999996 125.17 C 386.78 133.02 397.12999999999994 137.72 409.15999999999997 137.72 C 429.46999999999997 137.72 449.96 124.44 449.96 94.78999999999999 L 449.96 78.13 C 449.96 56.779999999999994 437.33 35.22 408.96 35.22 L 408.96999999999997 35.269999999999996 z M 426.40999999999997 93.66999999999999 C 426.40999999999997 109.43999999999998 417.21 119.23999999999998 402.40999999999997 119.23999999999998 C 388.60999999999996 119.23999999999998 378.96999999999997 108.88999999999999 378.96999999999997 94.05999999999997 L 378.96999999999997 79.35999999999997 C 378.96999999999997 64.29999999999997 388.69 53.78999999999997 402.59999999999997 53.78999999999997 C 417.29999999999995 53.78999999999997 426.42999999999995 63.589999999999975 426.42999999999995 79.35999999999997 L 426.40999999999997 93.66999999999997 z M 724.88 2.76 L 677.33 135.39 L 701.23 135.39 L 710.33 106.94999999999999 L 764.98 106.94999999999999 L 765.07 107.22999999999999 L 774.07 135.39 L 798 135.39 L 750.41 2.71 L 724.88 2.76 z M 716.21 88.28 L 737.6500000000001 21.129999999999995 L 758.8800000000001 88.19999999999999 L 716.2100000000002 88.27999999999999 z M 155.808 69.182 C 159.63219459150028 57.66598859368064 158.30868552359524 45.060585048258936 152.176 34.59000000000002 C 142.95399999999998 18.539000000000005 124.41999999999999 10.282000000000004 106.32 14.161000000000005 C 96.11935451640099 2.814594029665546 80.64210145601224 -2.2308525485404793 65.71421532761366 0.9238760393534484 C 50.78632919921506 4.078604627247376 38.67378207320243 14.954637708705237 33.93599999999998 29.458000000000027 C 22.046168159165564 31.896427980498245 11.78417788892665 39.34110835090699 5.775999999999982 49.887 C -3.5460000000000065 65.912 -1.4300000000000077 86.12700000000001 11.007999999999992 99.875 C 7.169792726784314 111.38598545148619 8.481809872796651 123.99301242783585 14.607999999999993 134.46699999999998 C 23.83999999999999 150.52399999999997 42.38599999999999 158.77999999999997 60.49699999999999 154.896 C 68.5526691031088 163.96689185006633 80.1256290337301 169.12771777882546 92.25699999999998 169.059 C 110.809 169.076 127.24699999999999 157.099 132.91299999999998 139.433 C 144.80105811696643 136.99054658733445 155.0615459606316 129.54695616978347 161.07299999999998 119.00399999999999 C 170.283 103.00699999999999 168.158 82.90099999999998 155.808 69.18199999999999 z M 92.256 157.995 C 84.85060537878473 158.00693268294162 77.67735508409274 155.41157694755583 71.994 150.66400000000002 L 72.994 150.097 L 106.65299999999999 130.668 C 108.35711442837724 129.66837547235318 109.40826295424206 127.84463658022548 109.419 125.869 L 109.419 78.413 L 123.649 86.645 C 123.7913358973817 86.71736757439085 123.89054727507113 86.853365193246 123.916 87.011 L 123.916 126.336 C 123.87899999999999 143.80599999999998 109.726 157.959 92.256 157.996 z M 24.205 128.935 C 20.491288207092484 122.52244064816195 19.157764136434952 115.00569901993093 20.438999999999997 107.707 L 21.439 108.30699999999999 L 55.131 127.73499999999999 C 56.82860957309676 128.7313345874025 58.93239042690324 128.7313345874025 60.63 127.73499999999999 L 101.787 104.00799999999998 L 101.787 120.43799999999999 C 101.7789145590947 120.60989695533463 101.69319935018089 120.76881957443666 101.554 120.86999999999999 L 67.462 140.533 C 52.312000000000005 149.26 32.957 144.071 24.205000000000005 128.93499999999997 z M 15.34 55.62 C 19.079583003402234 49.165806523958445 24.982252361304305 44.24295973365869 32.002999999999986 41.723000000000006 L 32.003 81.713 C 31.97715925686282 83.68106879326798 33.02436632945813 85.50726305158824 34.736 86.479 L 75.693 110.107 L 61.462999999999994 118.339 C 61.30667267468196 118.42202345591711 61.119327325318025 118.42202345591711 60.962999999999994 118.339 L 26.937999999999995 98.709 C 11.818 89.946 6.633 70.605 15.34 55.453 L 15.34 55.620000000000005 z M 132.24699999999999 82.78 L 91.15699999999998 58.919 L 105.35299999999998 50.721 C 105.50932732531801 50.637976544082875 105.69667267468195 50.637976544082875 105.85299999999998 50.721 L 139.879 70.383 C 150.4981994478364 76.51139243041473 156.6243388264615 88.22011281320542 155.6042838870576 100.43829920131931 C 154.58422894765368 112.6564855894332 146.60138666380746 123.18729494863993 135.113 127.47 L 135.113 87.478 C 135.05334504082487 85.51580125761808 133.96427078018348 83.73019066768303 132.24699999999999 82.779 z M 146.41 61.485 L 145.41 60.885 L 111.785 41.29 C 110.07717968029412 40.28777182146504 107.96082031970586 40.28777182146504 106.253 41.29 L 65.129 65.016 L 65.129 48.586000000000006 C 65.11175800466538 48.41627902015786 65.18843291248648 48.250661219264295 65.32900000000001 48.154 L 99.35400000000001 28.524000000000004 C 109.9998574640286 22.39110057281013 123.2311291115933 22.963550876528366 133.30751834447685 29.99299726695397 C 143.38390757736036 37.022443657379576 148.4897847439799 49.24227455315187 146.41000000000003 61.351 L 146.41000000000003 61.484 z M 57.364 90.611 L 43.134 82.41300000000001 C 42.99006123158716 82.32588451174652 42.89224510982482 82.17934350536099 42.867 82.013 L 42.867 42.788 C 42.883274805179276 30.504586307654044 49.995856802278524 19.33673695450259 61.12012403317284 14.127783568048983 C 72.24439126406716 8.918830181595375 85.37679291950366 10.606938175899977 94.822 18.460000000000008 L 93.822 19.027 L 60.163000000000004 38.456 C 58.45888557162275 39.45562452764682 57.40773704575795 41.27936341977452 57.397000000000006 43.255 L 57.364000000000004 90.611 z M 65.096 73.94800000000001 L 83.42500000000001 63.38400000000001 L 101.787 73.94800000000001 L 101.787 95.07600000000001 L 83.49100000000001 105.641 L 65.13 95.076 L 65.097 73.948 z" stroke-linecap="round" />
</g>
<g transform="matrix(NaN NaN NaN NaN 0 0)"  >
<g style=""   >
</g>
</g>
</svg>